PathFileType	4	(X/Y/Z)	18_1_52_p1_0-282_filt_butterworth.trc
DataRate	CameraRate	NumFrames	NumMarkers	Units	OrigDataRate	OrigDataStartFrame	OrigNumFrames
59.0	59.0	6	27	m	59.0	105	282
Frame#	Time	RHip			RKnee			RAnkle			RBigToe			RSmallToe			RHeel			LHip			LKnee			LAnkle			LBigToe			LSmallToe			LHeel			Neck			Head			Nose			RShoulder			RElbow			RWrist			RThumb			RIndex			RPinky			LShoulder			LElbow			LWrist			LThumb			LIndex			LPinky			
		X1	Y1	Z1	X2	Y2	Z2	X3	Y3	Z3	X4	Y4	Z4	X5	Y5	Z5	X6	Y6	Z6	X7	Y7	Z7	X8	Y8	Z8	X9	Y9	Z9	X10	Y10	Z10	X11	Y11	Z11	X12	Y12	Z12	X13	Y13	Z13	X14	Y14	Z14	X15	Y15	Z15	X16	Y16	Z16	X17	Y17	Z17	X18	Y18	Z18	X19	Y19	Z19	X20	Y20	Z20	X21	Y21	Z21	X22	Y22	Z22	X23	Y23	Z23	X24	Y24	Z24	X25	Y25	Z25	X26	Y26	Z26	X27	Y27	Z27	
105	1.7796610169491525	0.2948026066901161	0.3457108192396063	1.148010009772005	0.27366359433541376	0.4899566014800043	1.5947863669198918	0.2432357169115433	0.6095796135148701	2.0161441803618976	0.21781491625495564	0.4003282949612861	2.0365420758048676	0.2622971306053382	0.42906714361053305	2.044068007693924	0.2249462250117379	0.6857640622484934	2.0832687255134013	0.10166227112930772	0.35182203432065384	1.1453292345827948	0.10183484614478147	0.4203528491704077	1.5603156453638758	0.07931310152383848	0.5830542198109799	2.0196130560508947	0.06260151361622333	0.39140564801331773	2.0322934453838815	0.024146587850783465	0.420880744534766	2.034269440338856	0.09020500545508406	0.6642363561432063	2.0765020956676166	0.19922038746565326	0.28675216648212276	0.6000715670297196	0.21176158229278008	0.18743905721305928	0.3791944098309467	0.200020828118634	0.1634177921038578	0.5121580112401436	0.35378701307214	0.3636168487089905	0.6659169540855439	0.5707355413231682	0.3867845170328351	0.6540707172197906	0.532726974566212	0.3179143398564	0.4780905610028193	0.42822387206314105	0.28196635596366876	0.40688637646397435	0.45264337486544604	0.30120360357155374	0.3853854663774014	0.4976215429043925	0.25845316649263655	0.408279910303871	0.05267234850358187	0.3248851274839478	0.6263176916675888	-0.16162432105075067	0.37141582853089644	0.5885934606300922	-0.11509512309975438	0.27361254634312354	0.43165694365450047	-0.02434997125240245	0.2435052853673932	0.37674475930134493	-0.03933768844030825	0.2593360786118514	0.355428815495765	-0.07941321086051571	0.2572079483811639	0.36933612653358655
106	1.7966101694915255	0.2948021991879954	0.34570660228776456	1.1480630498861024	0.2735911215948399	0.4897788439044808	1.594783227401871	0.24494830388915068	0.6031322117893144	2.013185331785341	0.21721059280602184	0.3997697561592077	2.0361790113097697	0.2622806413814984	0.42912110095278544	2.044081782365421	0.2249668956901742	0.6856535752189057	2.083319161383745	0.10165319632326121	0.3517979427484927	1.1453615876886536	0.10183244403235889	0.42033849504355236	1.5602903817704594	0.07876712676174347	0.5850355591156834	2.020508611888726	0.06222322742267535	0.3917294840847406	2.033707775571336	0.024286908819455996	0.4221957093204162	2.0340844549937933	0.09015097021553245	0.6641690573737735	2.0764349061671936	0.19922216509915053	0.2866905353803702	0.5997523403728258	0.2117865631471114	0.18723455158213576	0.37918535583537594	0.20000442732899126	0.16341825047153052	0.5121180010107663	0.352686237350855	0.36067055013548016	0.665466875263353	0.5707417370715537	0.3867949926420579	0.6540875496462085	0.5326671039610409	0.3175541674360238	0.4780983025207034	0.42830596103591223	0.2822134170761912	0.4072135801575212	0.4523086942193113	0.30032096843189443	0.3854089695994251	0.4977507006839085	0.2586886541389335	0.4079394757675115	0.05259944611678971	0.3252110590389907	0.6251375446760782	-0.15961983971725005	0.37188940652861197	0.588597766747703	-0.1141842825331817	0.277108652511038	0.42955383217696835	-0.02515659012396167	0.24507602847051255	0.37423553974950374	-0.04140683234768052	0.2646891158393385	0.3530811793976905	-0.07839366648625459	0.25730328891017706	0.3678974699532277
107	1.8135593220338984	0.2948079548172394	0.34568993426128636	1.148130021390519	0.2735814856571542	0.4897449385665367	1.5947759341347847	0.2461297593599605	0.598569354788452	2.0112440212667013	0.2159302466186509	0.39909514327210294	2.0358296186755793	0.2622828446103085	0.4292054268874993	2.0441594041604865	0.22496492058494583	0.6855855833806709	2.083493560127829	0.10165788559645329	0.351832481384436	1.1453511228113578	0.10183119585177414	0.42032375429604485	1.5602601934040234	0.07712239134606601	0.5896033443571034	2.0223535363109346	0.06227711421390591	0.39272251570456485	2.035921016244997	0.024312088478418092	0.4257273505661101	2.0338844001390557	0.09012080715032872	0.6640221406141512	2.0762808763370444	0.1992593509058161	0.2865296666046313	0.5988970051300537	0.21184849108793397	0.1871849455514402	0.37915748585708503	0.20009192900827855	0.16310157100257805	0.5120871917572207	0.35121217142705624	0.3568566967769783	0.6644491720334667	0.5707506253887596	0.38680879752395186	0.6541770431872796	0.5323126181561443	0.3169477678337396	0.4785132693498369	0.4283000438413739	0.2820130157086474	0.4081529285797387	0.45137345463140355	0.29750864219434864	0.3856478423322985	0.4977966504288805	0.25880990811345383	0.4085174086396805	0.052532331465233686	0.32543753634275235	0.6242540646111595	-0.15852990781089943	0.37175625489073094	0.5887187812655431	-0.11285182798336156	0.27870384045232455	0.4284368559807844	-0.027241850615812125	0.2496376151913808	0.3710260935047266	-0.04387494408336157	0.2709223653256963	0.3504161483612501	-0.07704379293110526	0.2576805166480238	0.36740139732512184
108	1.8305084745762712	0.29480980332090523	0.3457079484979923	1.1480976640110936	0.2735896334616154	0.4897743722858394	1.5947358403321152	0.246008360317926	0.5987235733371076	2.011782926593967	0.214334282151432	0.39859438271748593	2.035559957324228	0.26228861643636525	0.4293281213326884	2.0442583658576994	0.2249170619212594	0.6859144066439995	2.0836584478666573	0.10165568160420302	0.35187322949878097	1.1453127492857234	0.10182827903643996	0.420332851263235	1.560241240924467	0.07483454678248004	0.5952123754079821	2.024380162929223	0.06249093472325836	0.39395434219034015	2.038146469877832	0.02376147277745264	0.4307396596972608	2.0341094854004966	0.09012062931418945	0.6638871851959274	2.076111684813999	0.1993221101574689	0.28631664596291384	0.5977465853417266	0.211828360849245	0.18722646033627016	0.3791239924534032	0.20018315444087123	0.16285762706270573	0.5120653902394026	0.3500798565874304	0.35412069751134556	0.663179352217328	0.5707644649969843	0.38683348929759975	0.6543263363770557	0.5313810371759433	0.31600299324771325	0.4795481850792769	0.4282924936308528	0.28154428200927917	0.40947520478012495	0.450163626740983	0.29358700128308945	0.38604228682375175	0.49778554407945347	0.25877768156972325	0.4107358130103386	0.05249220262727812	0.32550158755127456	0.6239096255365235	-0.15824147723125676	0.3714177081792194	0.5888823176680782	-0.11132946792986212	0.279156867928377	0.4280201058262969	-0.029870916490405606	0.2557479890246584	0.36815516873133275	-0.046086961427242126	0.27643576812702003	0.34791516800226363	-0.07601519077054239	0.2583511388659384	0.3673276754221494
109	1.847457627118644	0.29478583316517687	0.34588749807858804	1.1477105326735075	0.2735935188347526	0.4898048844127772	1.594686060263907	0.24458672956279298	0.6037029118117222	2.0147075872590157	0.21334127310621745	0.3984965550620757	2.0354556583301164	0.26229119227114905	0.42945887050605563	2.0443361301931193	0.2248142740355501	0.6868412711586396	2.083385357761524	0.1016407931489921	0.35190654951881234	1.1452719853584592	0.1018212391242157	0.4203661272325557	1.5602422567507157	0.07330169038749741	0.5995034731481781	2.025470161649666	0.06266393287578625	0.3946701253051547	2.0391712539037496	0.022278532547995084	0.43513438154308065	2.035381218665712	0.0901661263473869	0.6638644127561555	2.0761027704651576	0.19937630443723173	0.2861402677186188	0.5968672199059355	0.21177019267060046	0.18724531874766798	0.3791038736195774	0.20025760732178685	0.16289455584669033	0.5120462335827267	0.3496365067348422	0.3531900275827013	0.6622518395575396	0.5707740979885616	0.38689882947726517	0.6544251623848354	0.5301869821727151	0.3152102535948423	0.48092719239580944	0.42830389835327765	0.2810762149971708	0.4106168053520225	0.44933308674790085	0.29057513906467564	0.38641702215868573	0.4978839087742418	0.2585957060254456	0.4141226029790139	0.052483243814629654	0.32547166932418825	0.6238857082621632	-0.15829029204234957	0.3714528002112178	0.5889674058646797	-0.11022464432284897	0.2793268544297485	0.4272717574193037	-0.03221288287415054	0.2615636292856122	0.36617608206760677	-0.04754985839298742	0.2800895169430718	0.3451671036881462	-0.07565029872122209	0.25896080493327006	0.36673197927744666
110	1.8644067796610169	0.29472271298609587	0.3463393284723322	1.1467788657941953	0.2735912098134998	0.48982319222004567	1.5946582274679955	0.24272471824249955	0.6106126175733245	2.0181104611983938	0.213619045090273	0.3986893045879845	2.0355410331353956	0.26229136525864916	0.42957998743712716	2.0443704684381347	0.22469427459845842	0.6879420810053607	2.082278633956729	0.10162159606276204	0.3519427608887737	1.1452669236612076	0.10181184497771673	0.42041162688496597	1.5602729465005039	0.07344086627925211	0.6014107279598049	2.0253348892843173	0.06264765959281193	0.39489904104670265	2.0391607113482126	0.02028266455518791	0.4375907203088193	2.0377632146979714	0.09027874204697992	0.6639140188686812	2.0762490413951604	0.19940239716014974	0.28603048439187423	0.596519729318936	0.21172812228044247	0.18720667285984452	0.37910180763112394	0.20021500902821282	0.16350652612578034	0.5120207527088425	0.34965129948330714	0.3532735868545686	0.661900751053493	0.570748088738916	0.3870488778049746	0.6542520500189287	0.5292520118866317	0.31466513910045457	0.48204952530924927	0.4280663528774481	0.28003501494800725	0.4112877726257888	0.44898019610114365	0.2894792477180672	0.3866755483299425	0.49831434323304835	0.258261360820019	0.41725649397941206	0.052496877720608535	0.32543226731409713	0.6239137720587312	-0.15837294136228017	0.37207637404971505	0.5886477173113646	-0.10985915506109549	0.27954518299851805	0.4253639257203399	-0.03374569537692917	0.26571375587864937	0.3649030682469765	-0.048163463336066165	0.28164534418877285	0.34136931469568305	-0.07578183958275396	0.2590823708381716	0.36499594712438677
